Coordinates
version=1
nRows=23
nColumns=30
inDegrees=yes

Units are S.I. units (second, meters, Newtons, ...)
Angles are in degrees.

endheader
time	floatyaw	floatroll	floatpitch	floatx	floaty	floatz	pro_sup_l	deviation_l	flexion_l	cmc_flexion_l	cmc_abduction_l	mp_flexion_l	ip_flexion_l	2mcp_flexion_l	2mcp_abduction_l	2pm_flexion_l	2md_flexion_l	3mcp_flexion_l	3mcp_abduction_l	3pm_flexion_l	3md_flexion_l	4mcp_flexion_l	4mcp_abduction_l	4pm_flexion_l	4md_flexion_l	5mcp_flexion_l	5mcp_abduction_l	5pm_flexion_l	5md_flexion_l
-0.495000	-0.845308	-4.283240	94.249796	0.004764	-0.256917	0.015744	86.908436	1.339430	-0.506945	16.470337	11.063476	-16.101838	-22.754367	26.584255	5.645765	27.986166	19.046426	15.285377	4.656439	32.165083	22.622626	3.077884	-3.541105	51.769653	35.758838	-8.206200	-7.905330	56.611085	45.950107
-0.485000	-0.845308	-4.283240	94.249796	0.006993	-0.255333	0.018440	86.658949	1.794029	-0.315788	15.184920	12.213998	-15.749091	-21.700010	27.804617	5.777611	27.264813	18.811583	16.267002	4.847673	31.723072	22.929510	3.911058	-3.550923	51.829919	35.976074	-6.711939	-8.046774	56.161320	45.268205
-0.475000	-0.845308	-4.283240	94.249796	0.009568	-0.253544	0.021490	86.347920	2.291488	-0.084911	13.859631	13.514198	-15.464521	-20.694040	29.203838	5.941239	26.430265	18.539206	17.506279	5.048395	31.160046	23.213531	4.909749	-3.589630	51.701523	36.219766	-5.057244	-8.151095	55.503231	44.752039
-0.465000	-0.845308	-4.283240	94.249796	0.012538	-0.251561	0.024855	85.941433	2.848248	0.197920	12.472262	14.880946	-15.247319	-19.738278	30.739368	6.129334	25.521398	18.221165	18.994724	5.252715	30.487314	23.451684	6.043424	-3.661752	51.402565	36.548002	-3.116577	-8.176324	54.631732	44.440594
-0.455000	-0.845308	-4.283240	94.249796	0.015921	-0.249439	0.028482	85.449121	3.483225	0.524322	11.012597	16.215280	-15.071131	-18.827990	32.341537	6.330220	24.601973	17.859880	20.662764	5.456456	29.752081	23.643095	7.263238	-3.760370	51.022963	37.009675	-0.858988	-8.108691	53.631560	44.331889
-0.445000	-0.845308	-4.283240	94.249796	0.019693	-0.247265	0.032340	84.929956	4.206449	0.866293	9.493483	17.442739	-14.901034	-17.959477	33.926502	6.533266	23.741664	17.473932	22.411654	5.655652	29.011163	23.801374	8.504926	-3.870932	50.687925	37.629342	1.618896	-7.965008	52.662209	44.400332
-0.435000	-0.845308	-4.283240	94.249796	0.023797	-0.245128	0.036437	84.478252	5.013150	1.187655	7.956854	18.538606	-14.711374	-17.137893	35.417514	6.733757	22.995242	17.095059	24.155068	5.846056	28.303167	23.942909	9.697230	-3.977763	50.512225	38.402382	4.119863	-7.784552	51.916345	44.619919
-0.425000	-0.845308	-4.283240	94.249796	0.028159	-0.243090	0.040805	84.194927	5.886167	1.460775	6.470320	19.526304	-14.494787	-16.380076	36.765976	6.934347	22.389864	16.757151	25.843348	6.024416	27.639405	24.080210	10.775648	-4.069558	50.566461	39.301417	6.418029	-7.615592	51.564521	44.979023
-0.415000	-0.845308	-4.283240	94.249796	0.032718	-0.241179	0.045461	84.155841	6.803644	1.680878	5.110504	20.454117	-14.258919	-15.707666	37.962122	7.142686	21.924490	16.482561	27.460628	6.190362	27.015329	24.221888	11.699996	-4.141949	50.862065	40.287528	8.339577	-7.501517	51.705257	45.477527
-0.405000	-0.845308	-4.283240	94.249796	0.037439	-0.239394	0.050388	84.390285	7.746361	1.870958	3.937183	21.367181	-14.015551	-15.133385	39.030973	7.367168	21.578478	16.272896	29.006960	6.346992	26.427576	24.374882	12.470089	-4.197198	51.353010	41.320275	9.815003	-7.470732	52.339156	46.110220
-0.395000	-0.845308	-4.283240	94.249796	0.042323	-0.237730	0.055530	84.877350	8.700963	2.074970	2.970709	22.290524	-13.771249	-14.650756	40.016026	7.613272	21.323832	16.110204	30.483520	6.499066	25.881614	24.545239	13.130217	-4.242069	51.950846	42.365092	10.882642	-7.532602	53.376917	46.852439
-0.385000	-0.845308	-4.283240	94.249796	0.047392	-0.236185	0.060821	85.559465	9.658818	2.343338	2.185026	23.227181	-13.525871	-14.235404	40.957092	7.881662	21.136431	15.969158	31.887552	6.649715	25.387560	24.737644	13.755757	-4.284969	52.548602	43.397937	11.648774	-7.678984	54.676579	47.661454
-0.375000	-0.845308	-4.283240	94.249796	0.052672	-0.234771	0.066204	86.365584	10.612656	2.717751	1.519888	24.165104	-13.277901	-13.856590	41.871048	8.167636	21.003232	15.833739	33.211621	6.797914	24.952771	24.955633	14.424759	-4.333342	53.047328	44.405739	12.230779	-7.888962	56.092400	48.491966
-0.365000	-0.845308	-4.283240	94.249796	0.058163	-0.233512	0.071639	87.234266	11.553822	3.220503	0.905786	25.086278	-13.030194	-13.490530	42.744520	8.461472	20.923851	15.708492	34.441832	6.938679	24.579880	25.203077	15.187158	-4.392095	53.379688	45.382699	12.715085	-8.134488	57.514664	49.312637
-0.355000	-0.845308	-4.283240	94.249796	0.063828	-0.232442	0.077092	88.128837	12.472123	3.850604	0.289959	25.976375	-12.790624	-13.128077	43.542422	8.750173	20.906742	15.618059	35.557141	7.065977	24.270933	25.485875	16.046057	-4.463265	53.527314	46.326271	13.146958	-8.386061	58.888003	50.111964
-0.345000	-0.845308	-4.283240	94.249796	0.069604	-0.231610	0.082533	89.041132	13.358186	4.587294	-0.347241	26.834030	-12.567493	-12.774735	44.227016	9.021124	20.961872	15.596049	36.534153	7.176392	24.031765	25.812714	16.957640	-4.546272	53.528981	47.237303	13.545344	-8.618925	60.207755	50.890915
-0.335000	-0.845308	-4.283240	94.249796	0.075423	-0.231069	0.087933	89.984383	14.206150	5.400361	-0.991433	27.675379	-12.363908	-12.445003	44.775867	9.266486	21.092866	15.669858	37.356148	7.271175	23.871505	26.194067	17.846142	-4.637926	53.474946	48.123613	13.922468	-8.819802	61.500326	51.648102
-0.325000	-0.845308	-4.283240	94.249796	0.081235	-0.230868	0.093275	90.979036	15.014030	6.264156	-1.607974	28.528964	-12.175382	-12.153979	45.189144	9.485811	21.291882	15.848659	38.019804	7.355551	23.797431	26.638333	18.626528	-4.732267	53.482819	49.000271	14.293790	-8.992077	62.793816	52.366693
-0.315000	-0.845308	-4.283240	94.249796	0.087013	-0.231031	0.098556	92.037786	15.781275	7.169117	-2.163062	29.421492	-11.991736	-11.909278	45.484970	9.685172	21.539517	16.118841	38.534936	7.436126	23.809294	27.144903	19.229451	-4.821347	53.657302	49.880838	14.678134	-9.155753	64.087415	53.010619
-0.305000	-0.845308	-4.283240	94.249796	0.092747	-0.231544	0.103773	93.156943	16.506009	8.123869	-2.640977	30.361917	-11.801557	-11.706614	45.689143	9.873451	21.809908	16.447627	38.919162	7.518165	23.896979	27.697295	19.623432	-4.897618	54.048836	50.763212	15.094041	-9.339822	65.334519	53.533140
-0.295000	-0.845308	-4.283240	94.249796	0.098414	-0.232357	0.108912	94.318321	17.185053	9.145382	-3.048667	31.333776	-11.596688	-11.531450	45.827047	10.057990	22.078598	16.793052	39.193450	7.603915	24.042448	28.262295	19.826233	-4.956822	54.633571	51.621953	15.554852	-9.568979	66.454017	53.895688
-0.285000	-0.845308	-4.283240	94.249796	0.103979	-0.233405	0.113938	95.499547	17.817067	10.242896	-3.407314	32.301139	-11.375108	-11.365812	45.920978	10.241714	22.329595	17.117221	39.381791	7.692187	24.224357	28.799301	19.898197	-4.999467	55.327989	52.415888	16.062251	-9.850743	67.368584	54.089650
-0.275000	-0.845308	-4.283240	94.249796	0.109390	-0.234629	0.118805	96.685045	18.405764	11.406393	-3.738321	33.224809	-11.141725	-11.196470	45.990194	10.422774	22.559195	17.399259	39.512328	7.778935	24.423271	29.277673	19.918927	-5.030231	56.030529	53.107624	16.601097	-10.170000	68.048561	54.149808
